# Blender 4.0.1
# www.blender.org
mtllib gem.mtl
o Black_Gem.013
v 0.000000 0.018506 -0.000278
v -0.000000 1.185922 -0.000873
v -0.714296 0.577939 -0.000102
v -0.923880 0.818626 -0.382710
v -0.736916 1.055000 0.000047
v -0.554328 1.168578 -0.229527
v -0.505084 0.578098 -0.505186
v -0.382683 0.818796 -0.923907
v -0.521078 1.055164 -0.521031
v -0.229610 1.168680 -0.554245
v 0.000000 0.578163 -0.714398
v 0.382683 0.818796 -0.923907
v 0.000000 1.055231 -0.736869
v 0.229610 1.168680 -0.554245
v 0.505084 0.578098 -0.505186
v 0.923880 0.818626 -0.382710
v 0.521078 1.055164 -0.521031
v 0.554328 1.168578 -0.229527
v 0.714296 0.577939 -0.000102
v 0.923880 0.818386 0.382656
v 0.736916 1.055000 0.000047
v 0.554328 1.168434 0.229693
v 0.505084 0.577781 0.504982
v 0.382683 0.818217 0.923853
v 0.521078 1.054837 0.521125
v 0.229610 1.168332 0.554411
v 0.000000 0.577715 0.714194
v -0.382683 0.818217 0.923853
v 0.000000 1.054769 0.736963
v -0.229610 1.168332 0.554411
v -0.505084 0.577781 0.504982
v -0.923880 0.818386 0.382656
v -0.521078 1.054837 0.521125
v -0.554328 1.168434 0.229693
v 0.554272 1.167980 -0.229717
v 0.556476 1.168406 0.229210
v 0.229099 1.168264 0.553843
v -0.230532 1.169291 0.557162
v -0.555233 1.168823 0.229379
v -0.556456 1.170011 -0.230110
v -0.232028 1.169423 -0.558257
v 0.228670 1.168378 -0.553434
vn 0.1553 -0.7775 -0.6094
vn -0.5332 -0.6567 -0.5334
vn -0.5547 0.6203 -0.5545
vn 0.1456 0.7475 0.6481
vn -0.3733 0.8494 -0.3731
vn 0.3209 -0.7776 -0.5408
vn -0.0000 -0.6566 -0.7542
vn -0.0000 0.6204 -0.7843
vn 0.3552 0.7475 0.5613
vn -0.0000 0.8494 -0.5277
vn 0.5405 -0.7776 -0.3211
vn 0.5332 -0.6567 -0.5334
vn 0.5547 0.6203 -0.5545
vn 0.5610 0.7476 0.3554
vn 0.3733 0.8494 -0.3731
vn 0.6091 -0.7777 -0.1556
vn 0.7540 -0.6569 -0.0002
vn 0.7845 0.6202 0.0002
vn 0.6479 0.7477 0.1458
vn 0.5280 0.8493 0.0003
vn 0.6091 -0.7778 0.1551
vn 0.5332 -0.6570 0.5329
vn 0.5547 0.6200 0.5549
vn 0.6479 0.7478 -0.1453
vn 0.3733 0.8492 0.3736
vn 0.3209 -0.7779 0.5403
vn -0.0000 -0.6571 0.7538
vn -0.0000 0.6199 0.7847
vn 0.5610 0.7478 -0.3550
vn -0.0000 0.8491 0.5282
vn 0.1553 -0.7779 0.6089
vn -0.5332 -0.6570 0.5329
vn -0.5547 0.6200 0.5549
vn 0.3552 0.7479 -0.5608
vn -0.3733 0.8492 0.3736
vn 0.5405 -0.7778 0.3206
vn -0.7540 -0.6569 -0.0002
vn -0.7845 0.6202 0.0002
vn 0.1456 0.7479 -0.6476
vn -0.5280 0.8493 0.0003
vn 0.0026 0.9999 0.0152
vn 0.0024 0.9999 0.0157
vn 0.0021 0.9999 0.0163
vn 0.0068 0.9994 0.0327
vn 0.0067 0.9994 0.0329
vn -0.0028 0.9996 0.0287
vn -0.0027 0.9996 0.0285
vn -0.0027 0.9996 0.0284
vn -0.0004 0.9996 0.0271
vn -0.0004 0.9996 0.0272
vn 0.0031 0.9999 0.0115
vn 0.0029 0.9999 0.0111
vn 0.0034 0.9999 0.0122
vn -0.0155 0.9992 -0.0381
vn -0.0161 0.9992 -0.0364
vn -0.0158 0.9992 -0.0373
vn 0.0101 0.9996 -0.0276
vn 0.0100 0.9996 -0.0274
vn 0.0099 0.9996 -0.0272
vn 0.0206 0.9993 -0.0310
vn 0.0206 0.9993 -0.0311
vn 0.0205 0.9993 -0.0315
vn -0.1456 0.7475 0.6481
vn -0.3552 0.7475 0.5613
vn -0.5610 0.7476 0.3554
vn -0.6479 0.7477 0.1458
vn -0.6479 0.7478 -0.1453
vn -0.5610 0.7478 -0.3550
vn -0.3552 0.7479 -0.5608
vn -0.1456 0.7479 -0.6476
vn -0.1553 -0.7775 -0.6094
vn -0.3209 -0.7776 -0.5408
vn -0.5405 -0.7776 -0.3211
vn -0.6091 -0.7777 -0.1556
vn -0.5405 -0.7778 0.3206
vn -0.6091 -0.7778 0.1551
vn -0.3209 -0.7779 0.5403
vn -0.1553 -0.7779 0.6089
vt 0.662100 0.665500
vt 0.660100 0.427700
vt 0.760700 0.343600
vt 0.447100 0.767200
vt 0.415200 0.894400
vt 0.328500 0.711200
vt 0.496900 0.672100
vt 0.297300 0.698700
vt 0.386700 0.607600
vt 0.152000 0.283100
vt 0.093900 0.341500
vt 0.019100 0.238100
vt 0.319300 0.560100
vt 0.439300 0.544100
vt 0.797000 0.469600
vt 0.558100 0.345300
vt 0.520100 0.041500
vt 0.662300 0.184000
vt 0.535700 0.168200
vt 0.141400 0.201300
vt 0.538800 0.250600
vt 0.453300 0.164900
vt 0.927600 0.458400
vt 0.323000 0.000300
vt 0.405500 0.097700
vt 0.135600 0.073800
vt 0.222100 0.184300
vt 0.334800 0.140100
vt 0.885000 0.582400
vt 0.998400 0.648300
vt 0.258000 0.110100
vt 0.892300 0.725400
vt 0.947300 0.844400
vt 0.816200 0.846700
vt 0.793000 0.975700
vt 0.011700 0.439300
vt 0.147600 0.404100
vt 0.684400 0.902300
vt 0.591300 0.994700
vt 0.115800 0.611600
vt 0.131000 0.484900
vt 0.210200 0.507700
vt 0.544400 0.872200
vt 0.240500 0.584400
vt 0.288400 0.171700
vt 0.367600 0.355900
vt 0.181400 0.281700
vt 0.441800 0.169600
vt 0.551800 0.276700
vt 0.553900 0.430100
vt 0.446900 0.540000
vt 0.293400 0.542100
vt 0.183500 0.435100
s 0
usemtl Black
f 1/1/1 11/2/1 12/3/1
f 7/4/2 4/5/2 8/6/2
f 8/7/3 4/8/3 9/9/3
f 26/10/4 29/11/4 24/12/4
f 9/9/5 6/13/5 10/14/5
f 15/15/6 1/1/6 12/3/6
f 11/2/7 8/16/7 12/3/7
f 12/17/8 8/18/8 13/19/8
f 25/20/9 26/10/9 24/12/9
f 13/19/10 10/21/10 14/22/10
f 15/15/11 16/23/11 1/1/11
f 15/15/12 12/3/12 16/23/12
f 16/24/13 12/17/13 17/25/13
f 25/20/14 20/26/14 22/27/14
f 17/25/15 14/22/15 18/28/15
f 16/23/16 19/29/16 1/1/16
f 19/29/17 16/23/17 20/30/17
f 20/26/18 16/24/18 21/31/18
f 21/31/19 22/27/19 20/26/19
f 21/31/20 18/28/20 22/27/20
f 19/29/21 20/30/21 1/1/21
f 23/32/22 20/30/22 24/33/22
f 24/12/23 20/26/23 25/20/23
f 21/31/24 16/24/24 18/28/24
f 25/20/25 22/27/25 26/10/25
f 23/32/26 24/33/26 1/1/26
f 27/34/27 24/33/27 28/35/27
f 28/36/28 24/12/28 29/11/28
f 17/25/29 18/28/29 16/24/29
f 29/11/30 26/10/30 30/37/30
f 24/33/31 27/34/31 1/1/31
f 31/38/32 28/35/32 32/39/32
f 32/40/33 28/36/33 33/41/33
f 12/17/34 14/22/34 17/25/34
f 33/41/35 30/37/35 34/42/35
f 23/32/36 1/1/36 20/30/36
f 3/43/37 32/39/37 4/5/37
f 4/8/38 32/40/38 5/44/38
f 13/19/39 14/22/39 12/17/39
f 5/44/40 34/42/40 6/13/40
f 39/45/41 2/46/42 40/47/43
f 2/46/44 39/45/45 38/48/44
f 2/46/46 38/48/47 37/49/48
f 2/46/49 37/49/50 36/50/50
f 2/46/51 36/50/52 35/51/53
f 2/46/54 35/51/55 42/52/56
f 2/46/57 42/52/58 41/53/59
f 2/46/60 41/53/61 40/47/62
f 29/11/63 30/37/63 28/36/63
f 33/41/64 28/36/64 30/37/64
f 33/41/65 34/42/65 32/40/65
f 32/40/66 34/42/66 5/44/66
f 5/44/67 6/13/67 4/8/67
f 6/13/68 9/9/68 4/8/68
f 9/9/69 10/14/69 8/7/69
f 13/19/70 8/18/70 10/21/70
f 11/2/71 1/1/71 8/16/71
f 7/4/72 8/6/72 1/1/72
f 7/4/73 1/1/73 4/5/73
f 3/43/74 4/5/74 1/1/74
f 31/38/75 32/39/75 1/1/75
f 3/43/76 1/1/76 32/39/76
f 31/38/77 1/1/77 28/35/77
f 27/34/78 28/35/78 1/1/78
