# Blender 4.0.1
# www.blender.org
mtllib gems.mtl
o Black_Gem.013
v 0.000000 0.018506 -0.000278
v 0.000000 1.168506 0.000083
v -0.714296 0.577939 -0.000102
v -0.923880 0.818626 -0.382710
v -0.736916 1.055000 0.000047
v -0.554328 1.168578 -0.229527
v -0.505084 0.578098 -0.505186
v -0.382683 0.818796 -0.923907
v -0.521078 1.055164 -0.521031
v -0.229610 1.168680 -0.554245
v 0.000000 0.578163 -0.714398
v 0.382683 0.818796 -0.923907
v 0.000000 1.055231 -0.736869
v 0.229610 1.168680 -0.554245
v 0.505084 0.578098 -0.505186
v 0.923880 0.818626 -0.382710
v 0.521078 1.055164 -0.521031
v 0.554328 1.168578 -0.229527
v 0.714296 0.577939 -0.000102
v 0.923880 0.818386 0.382656
v 0.736916 1.055000 0.000047
v 0.554328 1.168434 0.229693
v 0.505084 0.577781 0.504982
v 0.382683 0.818217 0.923853
v 0.521078 1.054837 0.521125
v 0.229610 1.168332 0.554411
v 0.000000 0.577715 0.714194
v -0.382683 0.818217 0.923853
v 0.000000 1.054769 0.736963
v -0.229610 1.168332 0.554411
v -0.505084 0.577781 0.504982
v -0.923880 0.818386 0.382656
v -0.521078 1.054837 0.521125
v -0.554328 1.168434 0.229693
vn 0.1553 -0.7775 -0.6094
vn -0.5332 -0.6567 -0.5334
vn -0.5547 0.6203 -0.5545
vn 0.1456 0.7475 0.6481
vn -0.3733 0.8494 -0.3731
vn 0.3209 -0.7776 -0.5408
vn -0.0000 -0.6566 -0.7542
vn -0.0000 0.6204 -0.7843
vn 0.3552 0.7475 0.5613
vn -0.0000 0.8494 -0.5277
vn 0.5405 -0.7776 -0.3211
vn 0.5332 -0.6567 -0.5334
vn 0.5547 0.6203 -0.5545
vn 0.5610 0.7476 0.3554
vn 0.3733 0.8494 -0.3731
vn 0.6091 -0.7777 -0.1556
vn 0.7540 -0.6569 -0.0002
vn 0.7845 0.6202 0.0002
vn 0.6479 0.7477 0.1458
vn 0.5280 0.8493 0.0003
vn 0.6091 -0.7778 0.1551
vn 0.5332 -0.6570 0.5329
vn 0.5547 0.6200 0.5549
vn 0.6479 0.7478 -0.1453
vn 0.3733 0.8492 0.3736
vn 0.3209 -0.7779 0.5403
vn -0.0000 -0.6571 0.7538
vn -0.0000 0.6199 0.7847
vn 0.5610 0.7478 -0.3550
vn -0.0000 0.8491 0.5282
vn 0.1553 -0.7779 0.6089
vn -0.5332 -0.6570 0.5329
vn -0.5547 0.6200 0.5549
vn 0.3552 0.7479 -0.5608
vn -0.3733 0.8492 0.3736
vn 0.5405 -0.7778 0.3206
vn -0.7540 -0.6569 -0.0002
vn -0.7845 0.6202 0.0002
vn 0.1456 0.7479 -0.6476
vn -0.5280 0.8493 0.0003
vn -0.0000 -1.0000 -0.0003
vn -0.1456 0.7475 0.6481
vn -0.3552 0.7475 0.5613
vn -0.5610 0.7476 0.3554
vn -0.6479 0.7477 0.1458
vn -0.6479 0.7478 -0.1453
vn -0.5610 0.7478 -0.3550
vn -0.3552 0.7479 -0.5608
vn -0.1456 0.7479 -0.6476
vn -0.1553 -0.7775 -0.6094
vn -0.3209 -0.7776 -0.5408
vn -0.5405 -0.7776 -0.3211
vn -0.6091 -0.7777 -0.1556
vn -0.5405 -0.7778 0.3206
vn -0.6091 -0.7778 0.1551
vn -0.3209 -0.7779 0.5403
vn -0.1553 -0.7779 0.6089
vt 0.662100 0.665500
vt 0.660100 0.427700
vt 0.760700 0.343600
vt 0.447100 0.767200
vt 0.415200 0.894400
vt 0.328500 0.711200
vt 0.496900 0.672100
vt 0.297300 0.698700
vt 0.386700 0.607600
vt 0.152000 0.283100
vt 0.093900 0.341500
vt 0.019100 0.238100
vt 0.319300 0.560100
vt 0.439300 0.544100
vt 0.797000 0.469600
vt 0.558100 0.345300
vt 0.520100 0.041500
vt 0.662300 0.184000
vt 0.535700 0.168200
vt 0.141400 0.201300
vt 0.538800 0.250600
vt 0.453300 0.164900
vt 0.927600 0.458400
vt 0.323000 0.000300
vt 0.405500 0.097700
vt 0.135600 0.073800
vt 0.222100 0.184300
vt 0.334800 0.140100
vt 0.885000 0.582400
vt 0.998400 0.648300
vt 0.258000 0.110100
vt 0.892300 0.725400
vt 0.947300 0.844400
vt 0.816200 0.846700
vt 0.793000 0.975700
vt 0.011700 0.439300
vt 0.147600 0.404100
vt 0.684400 0.902300
vt 0.591300 0.994700
vt 0.115800 0.611600
vt 0.131000 0.484900
vt 0.210200 0.507700
vt 0.544400 0.872200
vt 0.240500 0.584400
vt 0.288400 0.171700
vt 0.367600 0.355900
vt 0.181400 0.281700
vt 0.441800 0.169600
vt 0.551800 0.276700
vt 0.553900 0.430100
vt 0.446900 0.540000
vt 0.293400 0.542100
vt 0.183500 0.435100
s 0
usemtl Black
f 1/1/1 11/2/1 12/3/1
f 7/4/2 4/5/2 8/6/2
f 8/7/3 4/8/3 9/9/3
f 26/10/4 29/11/4 24/12/4
f 9/9/5 6/13/5 10/14/5
f 15/15/6 1/1/6 12/3/6
f 11/2/7 8/16/7 12/3/7
f 12/17/8 8/18/8 13/19/8
f 25/20/9 26/10/9 24/12/9
f 13/19/10 10/21/10 14/22/10
f 15/15/11 16/23/11 1/1/11
f 15/15/12 12/3/12 16/23/12
f 16/24/13 12/17/13 17/25/13
f 25/20/14 20/26/14 22/27/14
f 17/25/15 14/22/15 18/28/15
f 16/23/16 19/29/16 1/1/16
f 19/29/17 16/23/17 20/30/17
f 20/26/18 16/24/18 21/31/18
f 21/31/19 22/27/19 20/26/19
f 21/31/20 18/28/20 22/27/20
f 19/29/21 20/30/21 1/1/21
f 23/32/22 20/30/22 24/33/22
f 24/12/23 20/26/23 25/20/23
f 21/31/24 16/24/24 18/28/24
f 25/20/25 22/27/25 26/10/25
f 23/32/26 24/33/26 1/1/26
f 27/34/27 24/33/27 28/35/27
f 28/36/28 24/12/28 29/11/28
f 17/25/29 18/28/29 16/24/29
f 29/11/30 26/10/30 30/37/30
f 24/33/31 27/34/31 1/1/31
f 31/38/32 28/35/32 32/39/32
f 32/40/33 28/36/33 33/41/33
f 12/17/34 14/22/34 17/25/34
f 33/41/35 30/37/35 34/42/35
f 23/32/36 1/1/36 20/30/36
f 3/43/37 32/39/37 4/5/37
f 4/8/38 32/40/38 5/44/38
f 13/19/39 14/22/39 12/17/39
f 5/44/40 34/42/40 6/13/40
f 6/45/41 2/46/41 34/47/41
f 2/46/41 6/45/41 10/48/41
f 2/46/41 10/48/41 14/49/41
f 2/46/41 14/49/41 18/50/41
f 2/46/41 18/50/41 22/51/41
f 2/46/41 22/51/41 26/52/41
f 2/46/41 26/52/41 30/53/41
f 2/46/41 30/53/41 34/47/41
f 29/11/42 30/37/42 28/36/42
f 33/41/43 28/36/43 30/37/43
f 33/41/44 34/42/44 32/40/44
f 32/40/45 34/42/45 5/44/45
f 5/44/46 6/13/46 4/8/46
f 6/13/47 9/9/47 4/8/47
f 9/9/48 10/14/48 8/7/48
f 13/19/49 8/18/49 10/21/49
f 11/2/50 1/1/50 8/16/50
f 7/4/51 8/6/51 1/1/51
f 7/4/52 1/1/52 4/5/52
f 3/43/53 4/5/53 1/1/53
f 31/38/54 32/39/54 1/1/54
f 3/43/55 1/1/55 32/39/55
f 31/38/56 1/1/56 28/35/56
f 27/34/57 28/35/57 1/1/57
o Black_Gem.001
v 0.009685 1.653158 0.009444
v 0.004128 0.950997 0.012814
v -0.429139 1.315017 0.007423
v -0.560217 1.170277 0.240710
v -0.445256 1.023844 0.008705
v -0.335494 0.954344 0.150167
v -0.303979 1.315511 0.316886
v -0.232544 1.169282 0.573923
v -0.316131 1.024354 0.327967
v -0.138890 0.953747 0.350095
v 0.003339 1.313704 0.447213
v 0.234759 1.165603 0.577845
v 0.000918 1.022490 0.462422
v 0.141492 0.951539 0.352448
v 0.312791 1.310655 0.322062
v 0.567953 1.161393 0.250178
v 0.320169 1.019343 0.333307
v 0.341408 0.949014 0.155847
v 0.443103 1.308148 0.014743
v 0.571857 1.159120 -0.217134
v 0.454609 1.016758 0.016257
v 0.343751 0.947650 -0.124540
v 0.317943 1.307654 -0.294720
v 0.244183 1.160114 -0.550348
v 0.325484 1.016248 -0.303005
v 0.147146 0.948246 -0.324468
v 0.010625 1.309461 -0.425047
v -0.223120 1.163794 -0.554269
v 0.008435 1.018112 -0.437460
v -0.133235 0.950454 -0.326821
v -0.298826 1.312510 -0.299895
v -0.556314 1.168003 -0.226602
v -0.310816 1.021258 -0.308345
v -0.333152 0.952980 -0.130220
vn 0.1564 0.7794 0.6067
vn -0.5324 0.6636 0.5255
vn -0.5642 -0.6131 0.5530
vn 0.1450 -0.7520 -0.6430
vn -0.3831 -0.8445 0.3742
vn 0.3225 0.7778 0.5395
vn -0.0011 0.6605 0.7508
vn -0.0115 -0.6163 0.7874
vn 0.3539 -0.7532 -0.5544
vn -0.0111 -0.8467 0.5320
vn 0.5440 0.7750 0.3217
vn 0.5339 0.6552 0.5345
vn 0.5451 -0.6218 0.5623
vn 0.5580 -0.7538 -0.3469
vn 0.3635 -0.8504 0.3805
vn 0.6139 0.7737 0.1567
vn 0.7591 0.6509 0.0032
vn 0.7795 -0.6263 0.0096
vn 0.6431 -0.7535 -0.1365
vn 0.5212 -0.8534 0.0085
vn 0.6165 0.7721 -0.1539
vn 0.5428 0.6501 -0.5318
vn 0.5544 -0.6272 -0.5470
vn 0.6407 -0.7521 0.1546
vn 0.3697 -0.8540 -0.3661
vn 0.3315 0.7725 -0.5415
vn 0.0115 0.6532 -0.7571
vn 0.0016 -0.6240 -0.7815
vn 0.5521 -0.7504 0.3635
vn -0.0023 -0.8518 -0.5239
vn 0.1665 0.7735 -0.6115
vn -0.5235 0.6585 -0.5408
vn -0.5549 -0.6185 -0.5564
vn 0.3446 -0.7478 0.5676
vn -0.3769 -0.8481 -0.3724
vn 0.5493 0.7719 -0.3201
vn -0.7487 0.6628 -0.0095
vn -0.7893 -0.6140 -0.0036
vn 0.1342 -0.7457 0.6526
vn -0.5346 -0.8451 -0.0004
vn 0.0079 1.0000 -0.0048
vn -0.1461 -0.7497 -0.6455
vn -0.3564 -0.7476 -0.5604
vn -0.5639 -0.7450 -0.3563
vn -0.6525 -0.7433 -0.1474
vn -0.6550 -0.7419 0.1437
vn -0.5699 -0.7415 0.3540
vn -0.3658 -0.7422 0.5616
vn -0.1569 -0.7434 0.6502
vn -0.1542 0.7819 0.6040
vn -0.3192 0.7829 0.5341
vn -0.5370 0.7835 0.3126
vn -0.6042 0.7832 0.1465
vn -0.5317 0.7804 -0.3291
vn -0.6016 0.7817 -0.1641
vn -0.3102 0.7776 -0.5469
vn -0.1441 0.7760 -0.6141
vt 0.662100 0.665500
vt 0.660100 0.427700
vt 0.760700 0.343600
vt 0.447100 0.767200
vt 0.415200 0.894400
vt 0.328500 0.711200
vt 0.496900 0.672100
vt 0.297300 0.698700
vt 0.386700 0.607600
vt 0.152000 0.283100
vt 0.093900 0.341500
vt 0.019100 0.238100
vt 0.319300 0.560100
vt 0.439300 0.544100
vt 0.797000 0.469600
vt 0.558100 0.345300
vt 0.520100 0.041500
vt 0.662300 0.184000
vt 0.535700 0.168200
vt 0.141400 0.201300
vt 0.538800 0.250600
vt 0.453300 0.164900
vt 0.927600 0.458400
vt 0.323000 0.000300
vt 0.405500 0.097700
vt 0.135600 0.073800
vt 0.222100 0.184300
vt 0.334800 0.140100
vt 0.885000 0.582400
vt 0.998400 0.648300
vt 0.258000 0.110100
vt 0.892300 0.725400
vt 0.947300 0.844400
vt 0.816200 0.846700
vt 0.793000 0.975700
vt 0.011700 0.439300
vt 0.147600 0.404100
vt 0.684400 0.902300
vt 0.591300 0.994700
vt 0.115800 0.611600
vt 0.131000 0.484900
vt 0.210200 0.507700
vt 0.544400 0.872200
vt 0.240500 0.584400
vt 0.288400 0.171700
vt 0.367600 0.355900
vt 0.181400 0.281700
vt 0.441800 0.169600
vt 0.551800 0.276700
vt 0.553900 0.430100
vt 0.446900 0.540000
vt 0.293400 0.542100
vt 0.183500 0.435100
s 0
usemtl Black
f 35/54/58 45/55/58 46/56/58
f 41/57/59 38/58/59 42/59/59
f 42/60/60 38/61/60 43/62/60
f 60/63/61 63/64/61 58/65/61
f 43/62/62 40/66/62 44/67/62
f 49/68/63 35/54/63 46/56/63
f 45/55/64 42/69/64 46/56/64
f 46/70/65 42/71/65 47/72/65
f 59/73/66 60/63/66 58/65/66
f 47/72/67 44/74/67 48/75/67
f 49/68/68 50/76/68 35/54/68
f 49/68/69 46/56/69 50/76/69
f 50/77/70 46/70/70 51/78/70
f 59/73/71 54/79/71 56/80/71
f 51/78/72 48/75/72 52/81/72
f 50/76/73 53/82/73 35/54/73
f 53/82/74 50/76/74 54/83/74
f 54/79/75 50/77/75 55/84/75
f 55/84/76 56/80/76 54/79/76
f 55/84/77 52/81/77 56/80/77
f 53/82/78 54/83/78 35/54/78
f 57/85/79 54/83/79 58/86/79
f 58/65/80 54/79/80 59/73/80
f 55/84/81 50/77/81 52/81/81
f 59/73/82 56/80/82 60/63/82
f 57/85/83 58/86/83 35/54/83
f 61/87/84 58/86/84 62/88/84
f 62/89/85 58/65/85 63/64/85
f 51/78/86 52/81/86 50/77/86
f 63/64/87 60/63/87 64/90/87
f 58/86/88 61/87/88 35/54/88
f 65/91/89 62/88/89 66/92/89
f 66/93/90 62/89/90 67/94/90
f 46/70/91 48/75/91 51/78/91
f 67/94/92 64/90/92 68/95/92
f 57/85/93 35/54/93 54/83/93
f 37/96/94 66/92/94 38/58/94
f 38/61/95 66/93/95 39/97/95
f 47/72/96 48/75/96 46/70/96
f 39/97/97 68/95/97 40/66/97
f 40/98/98 36/99/98 68/100/98
f 36/99/98 40/98/98 44/101/98
f 36/99/98 44/101/98 48/102/98
f 36/99/98 48/102/98 52/103/98
f 36/99/98 52/103/98 56/104/98
f 36/99/98 56/104/98 60/105/98
f 36/99/98 60/105/98 64/106/98
f 36/99/98 64/106/98 68/100/98
f 63/64/99 64/90/99 62/89/99
f 67/94/100 62/89/100 64/90/100
f 67/94/101 68/95/101 66/93/101
f 66/93/102 68/95/102 39/97/102
f 39/97/103 40/66/103 38/61/103
f 40/66/104 43/62/104 38/61/104
f 43/62/105 44/67/105 42/60/105
f 47/72/106 42/71/106 44/74/106
f 45/55/107 35/54/107 42/69/107
f 41/57/108 42/59/108 35/54/108
f 41/57/109 35/54/109 38/58/109
f 37/96/110 38/58/110 35/54/110
f 65/91/111 66/92/111 35/54/111
f 37/96/112 35/54/112 66/92/112
f 65/91/113 35/54/113 62/88/113
f 61/87/114 62/88/114 35/54/114
